<?xml version="1.0" standalone="no"?><!DOCTYPE svg PUBLIC "-//W3C//DTD SVG 1.1//EN" "http://www.w3.org/Graphics/SVG/1.1/DTD/svg11.dtd"><svg t="1590565641458" class="icon" viewBox="0 0 1024 1024" version="1.1" xmlns="http://www.w3.org/2000/svg" p-id="3462" xmlns:xlink="http://www.w3.org/1999/xlink" width="200" height="200"><defs><style type="text/css"></style></defs><path d="M991.666082 208.273511C970.304566 85.260849 940.780135 55.963593 816.086182 34.137495 736.700133 20.246113 624.638895 12.279674 508.676813 12.279674c-114.940822 0-221.24187 7.486508-299.308877 21.047362C86.341972 54.704926 57.042669 84.242659 35.260573 208.90489 6.382872 373.981576 5.946944 651.794883 34.316062 815.550481c21.302165 123.012661 50.839899 152.296615 175.577854 174.136016 79.583546 13.924127 191.884238 21.902846 308.084751 21.902846l0.017396 0c114.656343 0 220.747613-7.440459 298.694893-20.941961 123.041314-21.393239 152.35392-50.91767 174.107363-175.6106C1019.686253 649.934512 1020.079202 372.058784 991.666082 208.273511M960.556551 809.752428c-19.533892 111.792109-39.035038 131.507126-149.117203 150.646022-76.267011 13.202697-180.469258 20.464077-293.445332 20.464077l-0.017396 0c-114.51922 0-224.871537-7.800663-302.790164-21.421892C103.353414 939.851485 83.641467 920.316569 64.588529 810.325479c-27.872814-160.90876-27.451212-433.902294 0.946558-596.143399C85.067956 102.420671 104.569102 82.708723 214.620567 63.597457c76.402087-13.277398 180.826392-20.596084 294.059316-20.596084 114.25009 0 224.39263 7.800663 302.130132 21.403472C922.571425 83.966367 942.281325 103.483886 961.424314 213.520001 989.326804 374.440018 988.936925 647.466298 960.556551 809.752428" p-id="3463" fill="#ff6a00"></path><path d="M226.618832 732.63198l77.257571 0L303.876404 560.688909l-77.257571 0L226.618832 732.63198 226.618832 732.63198zM303.876404 305.699424l-77.257571 0 0 157.908426 77.257571 0L303.876404 305.699424zM329.628928 476.471832 182.136735 476.471832l0-19.883863-95.987145 54.974056 94.816482 54.975079 0-18.7132 149.83454 0 0 185.977715 79.599919 0L410.400532 305.699424l-80.771605 0L329.628928 476.471832 329.628928 476.471832zM631.636263 541.975708c-12.641925-15.909341-77.257571-80.709183-77.257571-80.709183s-27.860535-28.54001-26.923186-59.653635c0-21.756513 0-25.733081 0-25.733081l0-2.339278c0 0-0.468674-13.801331 15.216563-14.035668 3.044336-0.936325 14.046924 0.234337 14.046924 12.866029 0 12.632715 0 78.367859 0 78.367859l85.453231 0 0-84.216054c0 0 1.87265-63.162552-85.453231-65.50183-14.514575-0.234337-14.046924 0-14.046924 0s-102.07377-7.017834-106.523105 74.858942c0 42.576701 0 47.956222 0 47.956222s-2.808976 34.387181 19.899212 58.485019c23.176862 25.497721 78.897931 81.175811 81.940221 85.386716 3.043313 4.208858 20.835538 17.310248 18.72855 57.31538 0 13.802354 0 33.918507 0 33.918507-0.321318 19.715017-35.416628 18.327414-35.114752 0l0-98.253768-85.453231 0 0 106.440218c0 0-4.681626 69.24713 105.35142 69.012793 6.086625 0 99.498108 6.783497 108.86443-73.692373 0.468674-60.123332 0-71.352071 0-71.352071S650.366859 561.626257 631.636263 541.975708zM943.010943 511.562025l-94.815459-54.974056 0 21.054525L753.379001 477.642494 753.379001 384.067282l67.893296 0 0-78.367859L678.461731 305.699424l0 426.932556 76.086909 0 0-184.809099 92.474135 0 0 18.7132L943.010943 511.562025z" p-id="3464" fill="#ff6a00"></path></svg>