<?xml version="1.0" encoding="utf-8"?>
<!-- Generator: Adobe Illustrator 19.2.1, SVG Export Plug-In . SVG Version: 6.00 Build 0)  -->
<svg version="1.1" id="layer" xmlns="http://www.w3.org/2000/svg" xmlns:xlink="http://www.w3.org/1999/xlink" x="0px" y="0px"
	 viewBox="0 0 652 652" style="enable-background:new 0 0 652 652;" xml:space="preserve">
<style type="text/css">
	.st0{fill:#263746;}
	.st1{fill:#003478;}
	.st2{fill:#FFFFFF;}
</style>
<g>
	<path class="st0" d="M125.1,475.7c0-20.8,10.8-29.6,30.2-29.6c11.6,0,18.7,3.4,23.2,8.1l-8.7,8.8c-2.9-2.8-6.7-5.3-14.6-5.3
		c-12.5,0-17.4,6.2-17.4,18.1c0,12.5,3.4,18.7,17.3,18.7c11.2,0,14.4-3.7,14.4-11.8v-1.2h-16v-10.5H182v9.4
		c0,16.3-6.5,24.9-27.6,24.9C131.5,505.3,125.1,494.8,125.1,475.7"/>
	<path class="st0" d="M187,482.5c0-14.7,6.4-22.9,22.9-22.9c16.5,0,22.9,8.1,22.9,22.9s-6.4,22.9-22.9,22.9
		C193.5,505.3,187,497.2,187,482.5 M220.7,482.8c0-7.4-2.3-12.1-10.7-12.1c-8.5,0-10.7,4.7-10.7,12.1c0,7.4,2.2,12.2,10.7,12.2
		C218.3,495,220.7,490.2,220.7,482.8"/>
	<polygon class="st0" points="254.6,447.1 296.4,447.1 296.4,458.5 267.3,458.5 267.3,470.9 295.6,470.9 295.6,482.2 267.3,482.2 
		267.3,504.5 254.6,504.5 	"/>
	<path class="st0" d="M302.6,484v-23.4h12.2v23.6c0,6.1,0.1,10.4,8.8,10.4c8.6,0,8.8-4.3,8.8-10.5v-23.6h11.9V484
		c0,15-4,21.2-20.8,21.2C306.8,505.2,302.6,499.1,302.6,484"/>
	<path class="st0" d="M349.8,461.3l9.5-0.7l1.2,4.8c1.9-2.8,7.2-5,14-5.3v11.6c-10.3,0.1-12.5,4.1-12.5,11v21.7h-12.2V461.3z"/>
	<path class="st0" d="M377.5,460.6h7.8l2.1-10.7l9.5-1.9v12.6h10.4V471h-10.4v18.1c0,3.4,0.5,5.3,5.7,5.3h4.7v10.1
		c-1.8,0.2-5,0.2-7.2,0.2c-11.9,0-15.3-4-15.3-13.8V471h-7.2V460.6z"/>
	<path class="st0" d="M412.7,444.4h12.1v19.2c1.8-1.9,6-4,14.3-4c13.2,0,15.7,7.4,15.7,18.3v26.6h-12.1v-24.2c0-5.4-0.6-9.2-8-9.2
		c-8.4,0-9.8,3.9-9.8,9.8v23.6h-12.2V444.4z"/>
	<path class="st0" d="M460,482.5c0-12.2,4-22.9,22.8-22.9c19.3,0,19.9,12.9,19.5,27.5h-30.5c0.7,5.3,3.3,8.4,11.1,8.4
		c6.7,0,10.5-1.6,13.8-4l6.1,7.9c-5.7,4.3-11.2,6-19.9,6C463.9,505.3,460,495,460,482.5 M471.8,478.5h19.4c-0.3-5-1.3-8.7-8.8-8.7
		C474.9,469.8,472.4,473.1,471.8,478.5"/>
	<path class="st0" d="M508.1,461.3l9.5-0.7l1.2,4.8c1.9-2.8,7.2-5,14-5.3v11.6c-10.3,0.1-12.5,4.1-12.5,11v21.7h-12.2V461.3z"/>
</g>
<path class="st1" d="M327.7,148.9c-173.1,0-311.8,51.9-311.8,116.9c0,64.6,139.9,116.9,311.8,116.9s311.8-52.5,311.8-116.9
	S499.6,148.9,327.7,148.9"/>
<path class="st2" d="M510.9,232.3c0.4-0.7,0-1.2-0.9-1.2c-4.7,0-10.9,0-15.7,0c-1.2,0-1.8,0.1-2.3,1.2c-1.8,3.5-23.8,36.5-27.9,42.9
	c-0.7,1-1.5,0.8-1.6-0.3c-0.4-3.8-3.7-8.2-8.9-10.3c-3.9-1.6-7.8-1.9-11.8-1.4c-7.2,1-13.7,4.8-19.4,9.1
	c-8.6,6.5-15.9,14.9-25.5,21.2c-5.2,3.4-12.3,6.3-17.1,1.9c-4.3-4-3.8-12.9,2.8-19.8c0.7-0.7,1.5-0.1,1.4,0.5
	c-0.6,3.1,0.2,6.2,2.5,8.3c2.9,2.6,7,2.9,10.5,1.2c4.2-2.1,6.6-6,7.3-10.6c1.1-7-4.3-13.2-11-13.7c-5.5-0.4-10.7,1.5-15.9,5.8
	c-2.6,2.1-4,3.7-6.3,6.9c-0.5,0.8-1.4,0.9-1.3-0.3c0.3-9-3.5-14-10.9-14.2c-5.7-0.1-11.9,3-16.7,6.8c-5.3,4.2-9.8,9.8-14.8,15.1
	c-0.6,0.6-1.1,0.6-1.3-0.6c-0.2-5.9-1.6-11.7-4.4-15.8c-1-1.4-3-2.1-4.7-1.2c-0.8,0.4-3.6,1.7-5.6,3.3c-1,0.8-1.4,2-1,3.5
	c2.7,8.9,2.1,19-1.5,27.5c-3.3,7.8-9.7,14.9-17.3,17.2c-5,1.6-10.2,0.8-13.4-3.6c-4.4-6.1-2.6-16.7,3.9-25.5
	c5.8-7.7,14.2-12.7,22.5-15.8c1-0.4,1.2-1,0.9-1.8c-0.4-1.4-1.2-3.2-1.5-4.1c-0.8-2-2.9-2.4-5.5-2.1c-6.1,0.7-11.5,2.8-16.9,5.7
	c-14.1,7.6-21.2,22.2-24.4,30.1c-1.5,3.8-2.8,6.1-4.4,8.2c-2.2,2.8-5,5.4-10.2,9.8c-0.5,0.4-0.8,1.3-0.4,2.1
	c0.5,1.1,3.2,4.8,3.9,5.2c0.8,0.4,1.8-0.2,2.2-0.4c3.6-2.4,7.9-6.3,10-8.9c0.7-0.9,1.5-0.5,1.9,0.8c2,7,7.1,12.7,14.2,15.1
	c13,4.4,26.5-2,36.6-13c6.5-7,8.8-11.5,11.3-14.6c4.2-5.2,12.5-16.8,22.3-24.3c3.6-2.8,7.9-4.9,10-3.5c1.7,1.1,2.3,3.7-0.5,8.8
	c-10,18.3-24.8,39.9-27.5,45.1c-0.5,0.9-0.1,1.6,0.9,1.6c5.3,0,10.5,0,15.2,0c0.8,0,1.2-0.4,1.6-1c7.7-12.1,15-23.6,22.7-35.4
	c0.4-0.7,0.8-0.2,0.8,0.1c0.2,2.8,0.8,6.5,2.5,9c2.9,4.6,7.1,6.5,11.7,6.6c3.7,0,5.5-0.5,9.5-2c3.2-1.2,5.8-2.8,7.8-4.2
	c1.2-0.8,1.4,0.5,1.3,0.7c-1.8,9.6,0.4,20.9,9.9,25.7c11.4,5.6,23.9-2.3,31.1-9.4c0.7-0.7,1.5-0.6,1.5,0.9c0.2,2.7,1.4,6,3.6,8.2
	c6,6.1,18.2,3.7,30.4-5.8c7.8-6.1,16.1-14.6,23.5-23.7c0.3-0.3,0.5-0.9,0-1.5c-1.1-1.2-2.8-2.5-3.9-3.6c-0.5-0.4-1.2-0.3-1.7,0
	c-7.6,7.2-14.5,15.5-24.3,22.3c-3.3,2.3-8.7,4.2-11,1c-0.9-1.2-0.8-3,0.1-5.3C462.8,305.9,508.5,236.4,510.9,232.3 M450.5,290.6
	c0.1,0.5,0.8,1,1.5,1.3c0.2,0.1,0.4,0.3,0.1,0.8c-1.9,4.2-3.7,6.6-6.2,10.2c-2.2,3.3-4.8,5.9-7.8,8.5c-4.6,3.8-11,7.9-16.3,5.2
	c-2.3-1.2-3.4-4.5-3.3-7.2c0.1-7.5,3.4-15.2,9.6-22.7c7.5-9.2,15.8-14,21.2-11.4c5.6,2.7,3.8,9.2,1.3,14.3
	C450.4,289.9,450.4,290.3,450.5,290.6"/>
<path class="st2" d="M179.6,330.2c-17,0.1-32-10.4-33.8-28.6c-1-10.1,1.9-19.1,7.6-26.5c5.1-6.6,13.6-12.1,20.9-13.4
	c2.4-0.4,5.5-0.2,6.8,1.4c2.1,2.4,1.5,5-0.6,6.1c-5.5,2.8-12.2,7.7-15.5,14.3c-2.7,5.4-3.2,11.9,0.9,18.1
	c6.8,10.3,25.9,10.6,43.6-5.9c4.4-4,8.3-7.9,12.3-12.5c7.8-8.9,10.4-12.2,20.8-26.6c0.1-0.2,0.2-0.4,0.1-0.5
	c-0.1-0.2-0.2-0.2-0.5-0.2c-6.9,0.2-13,2.2-18.8,6.6c-1.7,1.2-4.1,1.1-5.2-0.6c-1.2-1.8-0.3-4.2,1.6-5.6c9.4-6.6,19.8-7.8,30.3-9.5
	c0,0,0.7,0,1.3-0.8c4.3-5.5,7.6-10.6,12.2-16.2c4.6-5.7,10.6-10.9,15.2-14.9c6.4-5.5,10.5-7.4,14.7-9.6c1.1-0.6-0.1-1.3-0.5-1.3
	c-23.3-4.4-47.5-10-70.6-1.5c-16,6-23,18.7-19.7,27.2c2.4,6,10.3,7,17.7,3.4c6.1-3,11.8-7.9,15.9-14.1c2.3-3.5,7-1,4.5,5.1
	c-6.8,15.9-19.7,28.5-35.4,29c-13.4,0.4-22-9.4-22-21.6c0.1-24,26.8-39.8,54.8-42.1c33.8-2.8,65.8,6.2,99.4,10.3
	c25.7,3.1,50.4,3.2,76.2-2.8c3.1-0.7,5.2,1.3,5,4.4c-0.3,4.5-3.7,8.8-12.2,13.4c-9.7,5.3-19.8,6.9-30.4,7
	c-25.6,0.2-49.4-9.8-74.1-15.1c0,1.1,0.3,2.4-0.6,3c-13.6,10.1-26,20.3-34.3,34.7c-0.3,0.3-0.1,0.6,0.4,0.6
	c7.2-0.4,13.6-0.6,20.3-1.1c1.2-0.1,1.2-0.4,1.1-1.2c-0.6-4.9,0.8-10.6,5.2-14.5c4.5-4,10-4.5,13.7-1.6c4.2,3.3,3.8,9.2,1.5,13.6
	c-2.3,4.5-6.2,6.9-9.9,8c0,0-0.8,0.2-0.7,0.9c0.2,1.1,5.2,3.9,5.6,4.7c0.4,0.7,0.2,1.8-0.6,2.6c-0.5,0.6-1.4,1.2-2.4,1.2
	c-0.9,0-1.4-0.3-2.5-0.9c-2.3-1.2-5.1-3.3-7-5.6c-0.7-0.8-1-0.8-2.6-0.7c-7.3,0.4-18.6,1.5-26.2,2.5c-1.9,0.2-2.1,0.6-2.5,1.2
	c-12.2,20.1-25.3,41.9-39.6,56.4C205.9,326,193.2,330.1,179.6,330.2 M296,240.7c0.2,1,0.6,1.2,1.1,1.1c2.3-0.5,4.9-2.4,6.4-4.6
	c1.4-2,2-4.9,0.7-6.1c-1.2-1-3.2-0.8-4.7,0.5C296.5,234.3,295.6,237.9,296,240.7"/>
<path class="st2" d="M327.7,372.6c-165,0-298.8-47.8-298.8-106.7c0-58.9,133.8-106.7,298.8-106.7c165,0,298.8,47.8,298.8,106.7
	C626.5,324.8,492.7,372.6,327.7,372.6 M327.7,168c-159.2,0-288.3,44-288.3,97.8c0,53.8,129.1,97.8,288.3,97.8s288.3-44,288.3-97.8
	C616,212,486.9,168,327.7,168"/>
</svg>
